<mxfile host="Electron" modified="2023-08-28T20:19:51.292Z" agent="Mozilla/5.0 (Windows NT 10.0; Win64; x64) AppleWebKit/537.36 (KHTML, like Gecko) draw.io/21.6.5 Chrome/114.0.5735.243 Electron/25.3.1 Safari/537.36" etag="COToVpIkbELsTOLFhbZw" version="21.6.5" type="device">
  <diagram name="Page-1" id="aMpiaYKqWfaqytIKhPjA">
    <mxGraphModel dx="1434" dy="854" grid="1" gridSize="10" guides="1" tooltips="1" connect="1" arrows="1" fold="1" page="1" pageScale="1" pageWidth="827" pageHeight="1169" math="1" shadow="0">
      <root>
        <mxCell id="0" />
        <mxCell id="1" parent="0" />
        <mxCell id="K0iht2mnKcC-egjCNsWv-100" style="edgeStyle=orthogonalEdgeStyle;rounded=0;orthogonalLoop=1;jettySize=auto;html=1;exitX=0.25;exitY=0;exitDx=0;exitDy=0;entryX=0.75;entryY=1;entryDx=0;entryDy=0;fillColor=#d5e8d4;strokeColor=#82b366;strokeWidth=3;jumpStyle=line;" edge="1" parent="1" source="K0iht2mnKcC-egjCNsWv-74" target="K0iht2mnKcC-egjCNsWv-51">
          <mxGeometry relative="1" as="geometry">
            <Array as="points">
              <mxPoint x="630" y="790" />
              <mxPoint x="590" y="790" />
            </Array>
          </mxGeometry>
        </mxCell>
        <mxCell id="K0iht2mnKcC-egjCNsWv-1" value="&lt;font style=&quot;font-size: 57px;&quot;&gt;1&lt;/font&gt;" style="whiteSpace=wrap;html=1;aspect=fixed;fillColor=#fff2cc;strokeColor=#d6b656;" vertex="1" parent="1">
          <mxGeometry x="370" y="400" width="80" height="80" as="geometry" />
        </mxCell>
        <mxCell id="K0iht2mnKcC-egjCNsWv-2" value="&lt;font style=&quot;font-size: 57px;&quot;&gt;2&lt;/font&gt;" style="whiteSpace=wrap;html=1;aspect=fixed;fillColor=#fff2cc;strokeColor=#d6b656;" vertex="1" parent="1">
          <mxGeometry x="450" y="400" width="80" height="80" as="geometry" />
        </mxCell>
        <mxCell id="K0iht2mnKcC-egjCNsWv-3" value="&lt;font style=&quot;font-size: 57px;&quot;&gt;3&lt;/font&gt;" style="whiteSpace=wrap;html=1;aspect=fixed;fillColor=#fff2cc;strokeColor=#d6b656;" vertex="1" parent="1">
          <mxGeometry x="530" y="400" width="80" height="80" as="geometry" />
        </mxCell>
        <mxCell id="K0iht2mnKcC-egjCNsWv-4" value="&lt;font style=&quot;font-size: 57px;&quot;&gt;4&lt;/font&gt;" style="whiteSpace=wrap;html=1;aspect=fixed;fillColor=#fff2cc;strokeColor=#d6b656;" vertex="1" parent="1">
          <mxGeometry x="610" y="400" width="80" height="80" as="geometry" />
        </mxCell>
        <mxCell id="K0iht2mnKcC-egjCNsWv-5" value="&lt;font style=&quot;font-size: 57px;&quot;&gt;5&lt;/font&gt;" style="whiteSpace=wrap;html=1;aspect=fixed;fillColor=#fff2cc;strokeColor=#d6b656;" vertex="1" parent="1">
          <mxGeometry x="690" y="400" width="80" height="80" as="geometry" />
        </mxCell>
        <mxCell id="K0iht2mnKcC-egjCNsWv-6" value="&lt;font style=&quot;font-size: 57px;&quot;&gt;6&lt;/font&gt;" style="whiteSpace=wrap;html=1;aspect=fixed;fillColor=#fff2cc;strokeColor=#d6b656;" vertex="1" parent="1">
          <mxGeometry x="770" y="400" width="80" height="80" as="geometry" />
        </mxCell>
        <mxCell id="K0iht2mnKcC-egjCNsWv-7" value="&lt;font style=&quot;font-size: 57px;&quot;&gt;7&lt;/font&gt;" style="whiteSpace=wrap;html=1;aspect=fixed;fillColor=#fff2cc;strokeColor=#d6b656;" vertex="1" parent="1">
          <mxGeometry x="850" y="400" width="80" height="80" as="geometry" />
        </mxCell>
        <mxCell id="K0iht2mnKcC-egjCNsWv-8" value="&lt;font style=&quot;font-size: 57px;&quot;&gt;8&lt;br&gt;&lt;/font&gt;" style="whiteSpace=wrap;html=1;aspect=fixed;fillColor=#fff2cc;strokeColor=#d6b656;" vertex="1" parent="1">
          <mxGeometry x="930" y="400" width="80" height="80" as="geometry" />
        </mxCell>
        <mxCell id="K0iht2mnKcC-egjCNsWv-9" value="&lt;font style=&quot;font-size: 57px;&quot;&gt;5&lt;/font&gt;" style="whiteSpace=wrap;html=1;aspect=fixed;fillColor=#e1d5e7;strokeColor=#9673a6;" vertex="1" parent="1">
          <mxGeometry x="370" y="520" width="80" height="80" as="geometry" />
        </mxCell>
        <mxCell id="K0iht2mnKcC-egjCNsWv-10" value="&lt;font style=&quot;font-size: 57px;&quot;&gt;7&lt;/font&gt;" style="whiteSpace=wrap;html=1;aspect=fixed;fillColor=#e1d5e7;strokeColor=#9673a6;" vertex="1" parent="1">
          <mxGeometry x="450" y="520" width="80" height="80" as="geometry" />
        </mxCell>
        <mxCell id="K0iht2mnKcC-egjCNsWv-11" value="&lt;font style=&quot;font-size: 57px;&quot;&gt;4&lt;/font&gt;" style="whiteSpace=wrap;html=1;aspect=fixed;fillColor=#e1d5e7;strokeColor=#9673a6;" vertex="1" parent="1">
          <mxGeometry x="530" y="520" width="80" height="80" as="geometry" />
        </mxCell>
        <mxCell id="K0iht2mnKcC-egjCNsWv-12" value="&lt;font style=&quot;font-size: 57px;&quot;&gt;9&lt;/font&gt;" style="whiteSpace=wrap;html=1;aspect=fixed;fillColor=#e1d5e7;strokeColor=#9673a6;" vertex="1" parent="1">
          <mxGeometry x="610" y="520" width="80" height="80" as="geometry" />
        </mxCell>
        <mxCell id="K0iht2mnKcC-egjCNsWv-13" value="&lt;font style=&quot;font-size: 57px;&quot;&gt;1&lt;/font&gt;" style="whiteSpace=wrap;html=1;aspect=fixed;fillColor=#e1d5e7;strokeColor=#9673a6;" vertex="1" parent="1">
          <mxGeometry x="690" y="520" width="80" height="80" as="geometry" />
        </mxCell>
        <mxCell id="K0iht2mnKcC-egjCNsWv-14" value="&lt;font style=&quot;font-size: 57px;&quot;&gt;3&lt;/font&gt;" style="whiteSpace=wrap;html=1;aspect=fixed;fillColor=#e1d5e7;strokeColor=#9673a6;" vertex="1" parent="1">
          <mxGeometry x="770" y="520" width="80" height="80" as="geometry" />
        </mxCell>
        <mxCell id="K0iht2mnKcC-egjCNsWv-15" value="&lt;font style=&quot;font-size: 57px;&quot;&gt;6&lt;/font&gt;" style="whiteSpace=wrap;html=1;aspect=fixed;fillColor=#e1d5e7;strokeColor=#9673a6;" vertex="1" parent="1">
          <mxGeometry x="850" y="520" width="80" height="80" as="geometry" />
        </mxCell>
        <mxCell id="K0iht2mnKcC-egjCNsWv-16" value="&lt;font style=&quot;font-size: 57px;&quot;&gt;2&lt;br&gt;&lt;/font&gt;" style="whiteSpace=wrap;html=1;aspect=fixed;fillColor=#e1d5e7;strokeColor=#9673a6;" vertex="1" parent="1">
          <mxGeometry x="930" y="520" width="80" height="80" as="geometry" />
        </mxCell>
        <mxCell id="K0iht2mnKcC-egjCNsWv-17" value="$$\mathbf{I}_1$$" style="text;html=1;strokeColor=none;fillColor=none;align=center;verticalAlign=middle;whiteSpace=wrap;rounded=0;strokeWidth=7;fontSize=38;" vertex="1" parent="1">
          <mxGeometry x="280" y="415" width="60" height="50" as="geometry" />
        </mxCell>
        <mxCell id="K0iht2mnKcC-egjCNsWv-18" value="$$\mathbf{I}_2$$" style="text;html=1;strokeColor=none;fillColor=none;align=center;verticalAlign=middle;whiteSpace=wrap;rounded=0;strokeWidth=7;fontSize=38;" vertex="1" parent="1">
          <mxGeometry x="280" y="535" width="60" height="50" as="geometry" />
        </mxCell>
        <mxCell id="K0iht2mnKcC-egjCNsWv-19" value="&lt;font style=&quot;font-size: 57px;&quot;&gt;9&lt;br&gt;&lt;/font&gt;" style="whiteSpace=wrap;html=1;aspect=fixed;fillColor=#fff2cc;strokeColor=#d6b656;" vertex="1" parent="1">
          <mxGeometry x="1010" y="400" width="80" height="80" as="geometry" />
        </mxCell>
        <mxCell id="K0iht2mnKcC-egjCNsWv-20" value="&lt;font style=&quot;font-size: 57px;&quot;&gt;8&lt;br&gt;&lt;/font&gt;" style="whiteSpace=wrap;html=1;aspect=fixed;fillColor=#e1d5e7;strokeColor=#9673a6;" vertex="1" parent="1">
          <mxGeometry x="1010" y="520" width="80" height="80" as="geometry" />
        </mxCell>
        <mxCell id="K0iht2mnKcC-egjCNsWv-101" style="edgeStyle=orthogonalEdgeStyle;rounded=0;orthogonalLoop=1;jettySize=auto;html=1;exitX=0.25;exitY=1;exitDx=0;exitDy=0;entryX=0.25;entryY=0;entryDx=0;entryDy=0;fillColor=#d5e8d4;strokeColor=#82b366;strokeWidth=3;" edge="1" parent="1" source="K0iht2mnKcC-egjCNsWv-51" target="K0iht2mnKcC-egjCNsWv-73">
          <mxGeometry relative="1" as="geometry" />
        </mxCell>
        <mxCell id="K0iht2mnKcC-egjCNsWv-51" value="&lt;font style=&quot;font-size: 57px;&quot;&gt;4&lt;/font&gt;" style="whiteSpace=wrap;html=1;aspect=fixed;fillColor=#d5e8d4;strokeColor=#82b366;rounded=0;shadow=0;glass=0;" vertex="1" parent="1">
          <mxGeometry x="530" y="680" width="80" height="80" as="geometry" />
        </mxCell>
        <mxCell id="K0iht2mnKcC-egjCNsWv-99" style="edgeStyle=orthogonalEdgeStyle;rounded=0;orthogonalLoop=1;jettySize=auto;html=1;exitX=0.75;exitY=1;exitDx=0;exitDy=0;entryX=0.75;entryY=0;entryDx=0;entryDy=0;fillColor=#d5e8d4;strokeColor=#82b366;strokeWidth=3;jumpStyle=line;" edge="1" parent="1" source="K0iht2mnKcC-egjCNsWv-52" target="K0iht2mnKcC-egjCNsWv-74">
          <mxGeometry relative="1" as="geometry" />
        </mxCell>
        <mxCell id="K0iht2mnKcC-egjCNsWv-52" value="&lt;font style=&quot;font-size: 57px;&quot;&gt;9&lt;/font&gt;" style="whiteSpace=wrap;html=1;aspect=fixed;fillColor=#d5e8d4;strokeColor=#82b366;fillStyle=auto;strokeWidth=1;" vertex="1" parent="1">
          <mxGeometry x="610" y="680" width="80" height="80" as="geometry" />
        </mxCell>
        <mxCell id="K0iht2mnKcC-egjCNsWv-104" style="edgeStyle=orthogonalEdgeStyle;rounded=0;orthogonalLoop=1;jettySize=auto;html=1;exitX=0.5;exitY=1;exitDx=0;exitDy=0;entryX=0.5;entryY=0;entryDx=0;entryDy=0;strokeWidth=3;fillColor=#d5e8d4;strokeColor=#82b366;" edge="1" parent="1" source="K0iht2mnKcC-egjCNsWv-54" target="K0iht2mnKcC-egjCNsWv-76">
          <mxGeometry relative="1" as="geometry" />
        </mxCell>
        <mxCell id="K0iht2mnKcC-egjCNsWv-54" value="&lt;font style=&quot;font-size: 57px;&quot;&gt;3&lt;/font&gt;" style="whiteSpace=wrap;html=1;aspect=fixed;fillColor=#d5e8d4;strokeColor=#82b366;" vertex="1" parent="1">
          <mxGeometry x="770" y="680" width="80" height="80" as="geometry" />
        </mxCell>
        <mxCell id="K0iht2mnKcC-egjCNsWv-57" value="&lt;font style=&quot;font-size: 57px;&quot;&gt;2&lt;/font&gt;" style="whiteSpace=wrap;html=1;aspect=fixed;fillColor=#fff2cc;strokeColor=#d6b656;" vertex="1" parent="1">
          <mxGeometry x="450" y="680" width="80" height="80" as="geometry" />
        </mxCell>
        <mxCell id="K0iht2mnKcC-egjCNsWv-59" value="&lt;font style=&quot;font-size: 57px;&quot;&gt;8&lt;br&gt;&lt;/font&gt;" style="whiteSpace=wrap;html=1;aspect=fixed;fillColor=#fff2cc;strokeColor=#d6b656;" vertex="1" parent="1">
          <mxGeometry x="930" y="680" width="80" height="80" as="geometry" />
        </mxCell>
        <mxCell id="K0iht2mnKcC-egjCNsWv-60" value="&lt;font style=&quot;font-size: 57px;&quot;&gt;9&lt;br&gt;&lt;/font&gt;" style="whiteSpace=wrap;html=1;aspect=fixed;fillColor=#d5e8d4;strokeColor=#82b366;strokeWidth=1;fillStyle=auto;" vertex="1" parent="1">
          <mxGeometry x="1010" y="680" width="80" height="80" as="geometry" />
        </mxCell>
        <mxCell id="K0iht2mnKcC-egjCNsWv-84" style="edgeStyle=orthogonalEdgeStyle;rounded=0;orthogonalLoop=1;jettySize=auto;html=1;exitX=0.5;exitY=1;exitDx=0;exitDy=0;fillColor=#f8cecc;strokeColor=#b85450;strokeWidth=3;jumpStyle=none;" edge="1" parent="1" source="K0iht2mnKcC-egjCNsWv-53" target="K0iht2mnKcC-egjCNsWv-75">
          <mxGeometry relative="1" as="geometry" />
        </mxCell>
        <mxCell id="K0iht2mnKcC-egjCNsWv-53" value="&lt;font style=&quot;font-size: 57px;&quot;&gt;1&lt;/font&gt;" style="whiteSpace=wrap;html=1;aspect=fixed;fillColor=#f8cecc;strokeColor=#b85450;fillStyle=auto;strokeWidth=1;" vertex="1" parent="1">
          <mxGeometry x="690" y="680" width="80" height="80" as="geometry" />
        </mxCell>
        <mxCell id="K0iht2mnKcC-egjCNsWv-83" style="edgeStyle=orthogonalEdgeStyle;rounded=0;orthogonalLoop=1;jettySize=auto;html=1;exitX=0.5;exitY=0;exitDx=0;exitDy=0;entryX=0.5;entryY=0;entryDx=0;entryDy=0;fillColor=#f8cecc;strokeColor=#b85450;strokeWidth=3;" edge="1" parent="1" source="K0iht2mnKcC-egjCNsWv-56" target="K0iht2mnKcC-egjCNsWv-53">
          <mxGeometry relative="1" as="geometry">
            <Array as="points">
              <mxPoint x="410" y="640" />
              <mxPoint x="730" y="640" />
            </Array>
          </mxGeometry>
        </mxCell>
        <mxCell id="K0iht2mnKcC-egjCNsWv-56" value="&lt;font style=&quot;font-size: 57px;&quot;&gt;1&lt;/font&gt;" style="whiteSpace=wrap;html=1;aspect=fixed;fillColor=#f8cecc;strokeColor=#b85450;fillStyle=auto;strokeWidth=1;" vertex="1" parent="1">
          <mxGeometry x="370" y="680" width="80" height="80" as="geometry" />
        </mxCell>
        <mxCell id="K0iht2mnKcC-egjCNsWv-58" value="&lt;font style=&quot;font-size: 57px;&quot;&gt;7&lt;/font&gt;" style="whiteSpace=wrap;html=1;aspect=fixed;fillColor=#fff2cc;strokeColor=#d6b656;fillStyle=solid;strokeWidth=1;" vertex="1" parent="1">
          <mxGeometry x="850" y="680" width="80" height="80" as="geometry" />
        </mxCell>
        <mxCell id="K0iht2mnKcC-egjCNsWv-103" style="edgeStyle=orthogonalEdgeStyle;rounded=0;orthogonalLoop=1;jettySize=auto;html=1;exitX=0.75;exitY=0;exitDx=0;exitDy=0;entryX=0.25;entryY=1;entryDx=0;entryDy=0;strokeWidth=3;fillColor=#d5e8d4;strokeColor=#82b366;jumpStyle=line;" edge="1" parent="1" source="K0iht2mnKcC-egjCNsWv-73" target="K0iht2mnKcC-egjCNsWv-54">
          <mxGeometry relative="1" as="geometry">
            <Array as="points">
              <mxPoint x="590" y="810" />
              <mxPoint x="790" y="810" />
            </Array>
          </mxGeometry>
        </mxCell>
        <mxCell id="K0iht2mnKcC-egjCNsWv-73" value="&lt;font style=&quot;font-size: 57px;&quot;&gt;3&lt;/font&gt;" style="whiteSpace=wrap;html=1;aspect=fixed;fillColor=#d5e8d4;strokeColor=#82b366;" vertex="1" parent="1">
          <mxGeometry x="530" y="840" width="80" height="80" as="geometry" />
        </mxCell>
        <mxCell id="K0iht2mnKcC-egjCNsWv-74" value="&lt;font style=&quot;font-size: 57px;&quot;&gt;4&lt;/font&gt;" style="whiteSpace=wrap;html=1;aspect=fixed;fillColor=#d5e8d4;strokeColor=#82b366;" vertex="1" parent="1">
          <mxGeometry x="610" y="840" width="80" height="80" as="geometry" />
        </mxCell>
        <mxCell id="K0iht2mnKcC-egjCNsWv-78" value="&lt;font style=&quot;font-size: 57px;&quot;&gt;7&lt;/font&gt;" style="whiteSpace=wrap;html=1;aspect=fixed;fillColor=#e1d5e7;strokeColor=#9673a6;" vertex="1" parent="1">
          <mxGeometry x="450" y="840" width="80" height="80" as="geometry" />
        </mxCell>
        <mxCell id="K0iht2mnKcC-egjCNsWv-80" value="&lt;font style=&quot;font-size: 57px;&quot;&gt;2&lt;br&gt;&lt;/font&gt;" style="whiteSpace=wrap;html=1;aspect=fixed;fillColor=#e1d5e7;strokeColor=#9673a6;" vertex="1" parent="1">
          <mxGeometry x="930" y="840" width="80" height="80" as="geometry" />
        </mxCell>
        <mxCell id="K0iht2mnKcC-egjCNsWv-81" value="&lt;font style=&quot;font-size: 57px;&quot;&gt;8&lt;br&gt;&lt;/font&gt;" style="whiteSpace=wrap;html=1;aspect=fixed;fillColor=#e1d5e7;strokeColor=#9673a6;" vertex="1" parent="1">
          <mxGeometry x="1010" y="840" width="80" height="80" as="geometry" />
        </mxCell>
        <mxCell id="K0iht2mnKcC-egjCNsWv-95" style="edgeStyle=orthogonalEdgeStyle;rounded=0;orthogonalLoop=1;jettySize=auto;html=1;exitX=0.5;exitY=1;exitDx=0;exitDy=0;fillColor=#f8cecc;strokeColor=#b85450;strokeWidth=3;" edge="1" parent="1" source="K0iht2mnKcC-egjCNsWv-75" target="K0iht2mnKcC-egjCNsWv-93">
          <mxGeometry relative="1" as="geometry" />
        </mxCell>
        <mxCell id="K0iht2mnKcC-egjCNsWv-75" value="&lt;font style=&quot;font-size: 57px;&quot;&gt;5&lt;/font&gt;" style="whiteSpace=wrap;html=1;aspect=fixed;fillColor=#f8cecc;strokeColor=#b85450;fillStyle=auto;strokeWidth=1;" vertex="1" parent="1">
          <mxGeometry x="690" y="840" width="80" height="80" as="geometry" />
        </mxCell>
        <mxCell id="K0iht2mnKcC-egjCNsWv-105" style="edgeStyle=orthogonalEdgeStyle;rounded=0;orthogonalLoop=1;jettySize=auto;html=1;exitX=0.5;exitY=1;exitDx=0;exitDy=0;entryX=0.5;entryY=0;entryDx=0;entryDy=0;fillColor=#d5e8d4;strokeColor=#82b366;strokeWidth=3;" edge="1" parent="1" source="K0iht2mnKcC-egjCNsWv-76" target="K0iht2mnKcC-egjCNsWv-90">
          <mxGeometry relative="1" as="geometry" />
        </mxCell>
        <mxCell id="K0iht2mnKcC-egjCNsWv-76" value="&lt;font style=&quot;font-size: 57px;&quot;&gt;6&lt;/font&gt;" style="whiteSpace=wrap;html=1;aspect=fixed;fillColor=#d5e8d4;strokeColor=#82b366;fillStyle=auto;strokeWidth=1;" vertex="1" parent="1">
          <mxGeometry x="770" y="840" width="80" height="80" as="geometry" />
        </mxCell>
        <mxCell id="K0iht2mnKcC-egjCNsWv-77" value="&lt;font style=&quot;font-size: 57px;&quot;&gt;5&lt;/font&gt;" style="whiteSpace=wrap;html=1;aspect=fixed;fillColor=#e1d5e7;strokeColor=#9673a6;fillStyle=auto;strokeWidth=1;" vertex="1" parent="1">
          <mxGeometry x="370" y="840" width="80" height="80" as="geometry" />
        </mxCell>
        <mxCell id="K0iht2mnKcC-egjCNsWv-79" value="&lt;font style=&quot;font-size: 57px;&quot;&gt;6&lt;/font&gt;" style="whiteSpace=wrap;html=1;aspect=fixed;fillColor=#e1d5e7;strokeColor=#9673a6;fillStyle=auto;strokeWidth=1;" vertex="1" parent="1">
          <mxGeometry x="850" y="840" width="80" height="80" as="geometry" />
        </mxCell>
        <mxCell id="K0iht2mnKcC-egjCNsWv-85" value="&lt;font style=&quot;font-size: 57px;&quot;&gt;4&lt;/font&gt;" style="whiteSpace=wrap;html=1;aspect=fixed;fillColor=#e1d5e7;strokeColor=#9673a6;" vertex="1" parent="1">
          <mxGeometry x="530" y="1000" width="80" height="80" as="geometry" />
        </mxCell>
        <mxCell id="K0iht2mnKcC-egjCNsWv-86" value="&lt;font style=&quot;font-size: 57px;&quot;&gt;9&lt;/font&gt;" style="whiteSpace=wrap;html=1;aspect=fixed;fillColor=#e1d5e7;strokeColor=#9673a6;fillStyle=auto;strokeWidth=1;" vertex="1" parent="1">
          <mxGeometry x="610" y="1000" width="80" height="80" as="geometry" />
        </mxCell>
        <mxCell id="K0iht2mnKcC-egjCNsWv-87" value="&lt;font style=&quot;font-size: 57px;&quot;&gt;3&lt;/font&gt;" style="whiteSpace=wrap;html=1;aspect=fixed;fillColor=#e1d5e7;strokeColor=#9673a6;" vertex="1" parent="1">
          <mxGeometry x="770" y="1000" width="80" height="80" as="geometry" />
        </mxCell>
        <mxCell id="K0iht2mnKcC-egjCNsWv-88" value="&lt;font style=&quot;font-size: 57px;&quot;&gt;2&lt;/font&gt;" style="whiteSpace=wrap;html=1;aspect=fixed;fillColor=#fff2cc;strokeColor=#d6b656;" vertex="1" parent="1">
          <mxGeometry x="450" y="1000" width="80" height="80" as="geometry" />
        </mxCell>
        <mxCell id="K0iht2mnKcC-egjCNsWv-89" value="&lt;font style=&quot;font-size: 57px;&quot;&gt;8&lt;br&gt;&lt;/font&gt;" style="whiteSpace=wrap;html=1;aspect=fixed;fillColor=#fff2cc;strokeColor=#d6b656;" vertex="1" parent="1">
          <mxGeometry x="930" y="1000" width="80" height="80" as="geometry" />
        </mxCell>
        <mxCell id="K0iht2mnKcC-egjCNsWv-90" value="&lt;font style=&quot;font-size: 57px;&quot;&gt;6&lt;br&gt;&lt;/font&gt;" style="whiteSpace=wrap;html=1;aspect=fixed;fillColor=#d5e8d4;strokeColor=#82b366;strokeWidth=1;fillStyle=auto;" vertex="1" parent="1">
          <mxGeometry x="1010" y="1000" width="80" height="80" as="geometry" />
        </mxCell>
        <mxCell id="K0iht2mnKcC-egjCNsWv-91" value="&lt;font style=&quot;font-size: 57px;&quot;&gt;1&lt;/font&gt;" style="whiteSpace=wrap;html=1;aspect=fixed;fillColor=#e1d5e7;strokeColor=#9673a6;fillStyle=auto;strokeWidth=1;" vertex="1" parent="1">
          <mxGeometry x="690" y="1000" width="80" height="80" as="geometry" />
        </mxCell>
        <mxCell id="K0iht2mnKcC-egjCNsWv-93" value="&lt;font style=&quot;font-size: 57px;&quot;&gt;5&lt;/font&gt;" style="whiteSpace=wrap;html=1;aspect=fixed;fillColor=#f8cecc;strokeColor=#b85450;fillStyle=auto;strokeWidth=1;" vertex="1" parent="1">
          <mxGeometry x="370" y="1000" width="80" height="80" as="geometry" />
        </mxCell>
        <mxCell id="K0iht2mnKcC-egjCNsWv-94" value="&lt;font style=&quot;font-size: 57px;&quot;&gt;7&lt;/font&gt;" style="whiteSpace=wrap;html=1;aspect=fixed;fillColor=#fff2cc;strokeColor=#d6b656;fillStyle=solid;strokeWidth=1;" vertex="1" parent="1">
          <mxGeometry x="850" y="1000" width="80" height="80" as="geometry" />
        </mxCell>
        <mxCell id="K0iht2mnKcC-egjCNsWv-98" style="edgeStyle=orthogonalEdgeStyle;rounded=0;orthogonalLoop=1;jettySize=auto;html=1;exitX=0.5;exitY=0;exitDx=0;exitDy=0;entryX=0.5;entryY=0;entryDx=0;entryDy=0;jumpStyle=line;strokeWidth=3;fillColor=#d5e8d4;strokeColor=#82b366;" edge="1" parent="1" source="K0iht2mnKcC-egjCNsWv-60" target="K0iht2mnKcC-egjCNsWv-52">
          <mxGeometry relative="1" as="geometry">
            <Array as="points">
              <mxPoint x="1050" y="620" />
              <mxPoint x="650" y="620" />
            </Array>
          </mxGeometry>
        </mxCell>
      </root>
    </mxGraphModel>
  </diagram>
</mxfile>
